<svg width="64" height="64" viewBox="0 0 64 64" fill="none" xmlns="http://www.w3.org/2000/svg">
    <rect width="64" height="64" rx="16" fill="#242424"/>
    <path d="M25.9246 32.04C27.3886 32.352 28.5646 33.084 29.4526 34.236C30.3406 35.364 30.7846 36.66 30.7846 38.124C30.7846 40.236 30.0406 41.916 28.5526 43.164C27.0886 44.388 25.0366 45 22.3966 45H10.6246V19.728H22.0006C24.5686 19.728 26.5726 20.316 28.0126 21.492C29.4766 22.668 30.2086 24.264 30.2086 26.28C30.2086 27.768 29.8126 29.004 29.0206 29.988C28.2526 30.972 27.2206 31.656 25.9246 32.04ZM16.7806 29.952H20.8126C21.8206 29.952 22.5886 29.736 23.1166 29.304C23.6686 28.848 23.9446 28.188 23.9446 27.324C23.9446 26.46 23.6686 25.8 23.1166 25.344C22.5886 24.888 21.8206 24.66 20.8126 24.66H16.7806V29.952ZM21.3166 40.032C22.3486 40.032 23.1406 39.804 23.6926 39.348C24.2686 38.868 24.5566 38.184 24.5566 37.296C24.5566 36.408 24.2566 35.712 23.6566 35.208C23.0806 34.704 22.2766 34.452 21.2446 34.452H16.7806V40.032H21.3166ZM47.243 45L41.987 35.46H40.511V45H34.355V19.728H44.687C46.679 19.728 48.371 20.076 49.763 20.772C51.179 21.468 52.235 22.428 52.931 23.652C53.627 24.852 53.975 26.196 53.975 27.684C53.975 29.364 53.495 30.864 52.535 32.184C51.599 33.504 50.207 34.44 48.359 34.992L54.191 45H47.243ZM40.511 31.104H44.327C45.455 31.104 46.295 30.828 46.847 30.276C47.423 29.724 47.711 28.944 47.711 27.936C47.711 26.976 47.423 26.22 46.847 25.668C46.295 25.116 45.455 24.84 44.327 24.84H40.511V31.104Z" fill="white"/>
</svg>
